# xmcd CD database file
#
# Track frame offsets:
#	150
#	14015
#	33365
#	57175
#	71407
#	83285
#	100237
#	117652
#	127547
#	147942
#	164940
#	183702
#	195927
#
# Disc length: 2780 seconds
#
# Revision: 0
# Processed by: cddbd v1.5.1PL0 Copyright (c) Steve Scherf et al.
# Submitted via: CDex 1.51
#
DISCID=ae0ada0d
DTITLE=Dina Blade - S' Wonderful
DYEAR=2001
DGENRE=Jazz
TTITLE0=S' Wonderful
TTITLE1=On The Street Where You Live
TTITLE2=That's All
TTITLE3=Summer Samba
TTITLE4=In The Cool Cool Cool of the Evening
TTITLE5=How Strange
TTITLE6=Waltz for Debby
TTITLE7=It's Allright With Me
TTITLE8=Suddenly It's Spring
TTITLE9=That Old Black Magic
TTITLE10=The Boy Next Door
TTITLE11=On the Atchison, Topekand the Santa Fe
TTITLE12=Too Marvelous for Words
EXTD=YEAR: 2001
EXTT0=
EXTT1=
EXTT2=
EXTT3=
EXTT4=
EXTT5=
EXTT6=
EXTT7=
EXTT8=
EXTT9=
EXTT10=
EXTT11=
EXTT12=
PLAYORDER=
